HIERARCHY
ROOT Hips
{
	OFFSET 0.053599 88.859886 3.107447
	CHANNELS 6 Xposition Yposition Zposition Zrotation Yrotation Xrotation 
	JOINT Spine
	{
		OFFSET -0.000000 8.814246 -2.080107
		CHANNELS 3 Zrotation Yrotation Xrotation
		JOINT Spine1
		{
			OFFSET 0.000000 8.844141 0.000000
			CHANNELS 3 Zrotation Yrotation Xrotation
			JOINT Spine2
			{
				OFFSET -0.000000 11.682268 0.000000
				CHANNELS 3 Zrotation Yrotation Xrotation
				JOINT Spine3
				{
					OFFSET 0.000000 11.746700 0.000000
					CHANNELS 3 Zrotation Yrotation Xrotation
					JOINT Neck
					{
						OFFSET -0.000000 17.658264 -0.000000
						CHANNELS 3 Zrotation Yrotation Xrotation
						JOINT Neck1
						{
							OFFSET -0.000000 5.101515 -0.000000
							CHANNELS 3 Zrotation Yrotation Xrotation
							JOINT Head
							{
								OFFSET 0.000000 5.101515 0.000000
								CHANNELS 3 Zrotation Yrotation Xrotation
								JOINT HeadEnd
								{
									OFFSET 0.000000 11.655085 0.000000
									CHANNELS 3 Zrotation Yrotation Xrotation
									End Site
									{
										OFFSET 0.000000 0.000000 0.000000
									}
								}
							}
						}
					}
					JOINT RightShoulder
					{
						OFFSET -2.625389 11.175210 0.000000
						CHANNELS 3 Zrotation Yrotation Xrotation
						JOINT RightArm
						{
							OFFSET -0.000000 10.434715 -0.000000
							CHANNELS 3 Zrotation Yrotation Xrotation
							JOINT RightForeArm
							{
								OFFSET -0.000000 29.628420 0.000000
								CHANNELS 3 Zrotation Yrotation Xrotation
								JOINT RightHand
								{
									OFFSET -0.000000 22.857611 0.000000
									CHANNELS 3 Zrotation Yrotation Xrotation
									JOINT RightHandThumb1
									{
										OFFSET -2.867323 3.959563 2.944291
										CHANNELS 3 Zrotation Yrotation Xrotation
										JOINT RightHandThumb2
										{
											OFFSET 0.000000 3.350399 0.000000
											CHANNELS 3 Zrotation Yrotation Xrotation
											JOINT RightHandThumb3
											{
												OFFSET 0.000000 3.756509 -0.000000
												CHANNELS 3 Zrotation Yrotation Xrotation
												JOINT RightHandThumb4
												{
													OFFSET 0.000000 3.147345 0.000000
													CHANNELS 3 Zrotation Yrotation Xrotation
													End Site
													{
														OFFSET 0.000000 0.000000 0.000000
													}
												}
											}
										}
									}
									JOINT RightHandIndex1
									{
										OFFSET -0.086752 10.030893 2.345280
										CHANNELS 3 Zrotation Yrotation Xrotation
										JOINT RightHandIndex2
										{
											OFFSET -0.000000 4.061090 0.000000
											CHANNELS 3 Zrotation Yrotation Xrotation
											JOINT RightHandIndex3
											{
												OFFSET -0.000000 3.248873 0.000000
												CHANNELS 3 Zrotation Yrotation Xrotation
												JOINT RightHandIndex4
												{
													OFFSET 0.000000 2.639709 -0.000000
													CHANNELS 3 Zrotation Yrotation Xrotation
													End Site
													{
														OFFSET 0.000000 0.000000 0.000000
													}
												}
											}
										}
									}
									JOINT RightHandMiddle1
									{
										OFFSET 0.104102 9.502952 0.006768
										CHANNELS 3 Zrotation Yrotation Xrotation
										JOINT RightHandMiddle2
										{
											OFFSET 0.000000 4.568727 0.000000
											CHANNELS 3 Zrotation Yrotation Xrotation
											JOINT RightHandMiddle3
											{
												OFFSET 0.000000 3.654981 -0.000000
												CHANNELS 3 Zrotation Yrotation Xrotation
												JOINT RightHandMiddle4
												{
													OFFSET -0.000000 2.741236 -0.000000
													CHANNELS 3 Zrotation Yrotation Xrotation
													End Site
													{
														OFFSET 0.000000 0.000000 0.000000
													}
												}
											}
										}
									}
									JOINT RightHandRing1
									{
										OFFSET 0.086752 8.921708 -2.267442
										CHANNELS 3 Zrotation Yrotation Xrotation
										JOINT RightHandRing2
										{
											OFFSET -0.000000 4.061090 0.000000
											CHANNELS 3 Zrotation Yrotation Xrotation
											JOINT RightHandRing3
											{
												OFFSET 0.000000 3.654981 -0.000000
												CHANNELS 3 Zrotation Yrotation Xrotation
												JOINT RightHandRing4
												{
													OFFSET 0.000000 2.741236 -0.000000
													CHANNELS 3 Zrotation Yrotation Xrotation
													End Site
													{
														OFFSET 0.000000 0.000000 0.000000
													}
												}
											}
										}
									}
									JOINT RightHandPinky1
									{
										OFFSET -0.173504 7.976997 -4.467199
										CHANNELS 3 Zrotation Yrotation Xrotation
										JOINT RightHandPinky2
										{
											OFFSET 0.000000 3.350399 -0.000000
											CHANNELS 3 Zrotation Yrotation Xrotation
											JOINT RightHandPinky3
											{
												OFFSET -0.000000 2.842763 0.000000
												CHANNELS 3 Zrotation Yrotation Xrotation
												JOINT RightHandPinky4
												{
													OFFSET -0.000000 2.639709 0.000000
													CHANNELS 3 Zrotation Yrotation Xrotation
													End Site
													{
														OFFSET 0.000000 0.000000 0.000000
													}
												}
											}
										}
									}
									JOINT RightForeArmEnd
									{
										OFFSET 0.000000 0.000000 0.000000
										CHANNELS 3 Zrotation Yrotation Xrotation
										End Site
										{
											OFFSET 0.000000 0.000000 0.000000
										}
									}
								}
								JOINT RightArmEnd
								{
									OFFSET 0.000000 0.000000 0.000000
									CHANNELS 3 Zrotation Yrotation Xrotation
									End Site
									{
										OFFSET 0.000000 0.000000 0.000000
									}
								}
							}
						}
					}
					JOINT LeftShoulder
					{
						OFFSET 2.625389 11.175210 0.000000
						CHANNELS 3 Zrotation Yrotation Xrotation
						JOINT LeftArm
						{
							OFFSET 0.000000 10.813635 -0.000000
							CHANNELS 3 Zrotation Yrotation Xrotation
							JOINT LeftForeArm
							{
								OFFSET 0.000000 28.724781 0.000000
								CHANNELS 3 Zrotation Yrotation Xrotation
								JOINT LeftHand
								{
									OFFSET 0.644384 25.716167 -0.328871
									CHANNELS 3 Zrotation Yrotation Xrotation
									JOINT LeftHandThumb1
									{
										OFFSET 2.867323 3.959563 2.944291
										CHANNELS 3 Zrotation Yrotation Xrotation
										JOINT LeftHandThumb2
										{
											OFFSET 0.000000 3.350399 0.000000
											CHANNELS 3 Zrotation Yrotation Xrotation
											JOINT LeftHandThumb3
											{
												OFFSET -0.000000 3.756509 0.000000
												CHANNELS 3 Zrotation Yrotation Xrotation
												JOINT LeftHandThumb4
												{
													OFFSET -0.000000 3.100000 0.000000
													CHANNELS 3 Zrotation Yrotation Xrotation
													End Site
													{
														OFFSET 0.000000 0.000000 0.000000
													}
												}
											}
										}
									}
									JOINT LeftHandIndex1
									{
										OFFSET 0.086752 10.030893 2.345280
										CHANNELS 3 Zrotation Yrotation Xrotation
										JOINT LeftHandIndex2
										{
											OFFSET -0.000000 4.061090 -0.000000
											CHANNELS 3 Zrotation Yrotation Xrotation
											JOINT LeftHandIndex3
											{
												OFFSET 0.000000 3.248873 -0.000000
												CHANNELS 3 Zrotation Yrotation Xrotation
												JOINT LeftHandIndex4
												{
													OFFSET 0.000000 2.639709 -0.000000
													CHANNELS 3 Zrotation Yrotation Xrotation
													End Site
													{
														OFFSET 0.000000 0.000000 0.000000
													}
												}
											}
										}
									}
									JOINT LeftHandMiddle1
									{
										OFFSET -0.104102 9.502952 0.006768
										CHANNELS 3 Zrotation Yrotation Xrotation
										JOINT LeftHandMiddle2
										{
											OFFSET -0.000000 4.568727 -0.000000
											CHANNELS 3 Zrotation Yrotation Xrotation
											JOINT LeftHandMiddle3
											{
												OFFSET 0.000000 3.654981 0.000000
												CHANNELS 3 Zrotation Yrotation Xrotation
												JOINT LeftHandMiddle4
												{
													OFFSET 0.000000 2.741236 -0.000000
													CHANNELS 3 Zrotation Yrotation Xrotation
													End Site
													{
														OFFSET 0.000000 0.000000 0.000000
													}
												}
											}
										}
									}
									JOINT LeftHandRing1
									{
										OFFSET -0.086752 8.921708 -2.267442
										CHANNELS 3 Zrotation Yrotation Xrotation
										JOINT LeftHandRing2
										{
											OFFSET 0.000000 4.061090 0.000000
											CHANNELS 3 Zrotation Yrotation Xrotation
											JOINT LeftHandRing3
											{
												OFFSET 0.000000 3.654981 0.000000
												CHANNELS 3 Zrotation Yrotation Xrotation
												JOINT LeftHandRing4
												{
													OFFSET 0.000000 2.741236 0.000000
													CHANNELS 3 Zrotation Yrotation Xrotation
													End Site
													{
														OFFSET 0.000000 0.000000 0.000000
													}
												}
											}
										}
									}
									JOINT LeftHandPinky1
									{
										OFFSET 0.173504 7.976997 -4.467199
										CHANNELS 3 Zrotation Yrotation Xrotation
										JOINT LeftHandPinky2
										{
											OFFSET -0.000000 3.350399 -0.000000
											CHANNELS 3 Zrotation Yrotation Xrotation
											JOINT LeftHandPinky3
											{
												OFFSET 0.000000 2.842763 0.000000
												CHANNELS 3 Zrotation Yrotation Xrotation
												JOINT LeftHandPinky4
												{
													OFFSET -0.000000 2.639709 -0.000000
													CHANNELS 3 Zrotation Yrotation Xrotation
													End Site
													{
														OFFSET 0.000000 0.000000 0.000000
													}
												}
											}
										}
									}
									JOINT LeftForeArmEnd
									{
										OFFSET 0.000000 0.000000 0.000000
										CHANNELS 3 Zrotation Yrotation Xrotation
										End Site
										{
											OFFSET 0.000000 0.000000 0.000000
										}
									}
								}
								JOINT LeftArmEnd
								{
									OFFSET 0.000000 0.000000 0.000000
									CHANNELS 3 Zrotation Yrotation Xrotation
									End Site
									{
										OFFSET 0.000000 0.000000 0.000000
									}
								}
							}
						}
					}
				}
			}
		}
	}
	JOINT RightUpLeg
	{
		OFFSET -11.289943 0.000000 0.000000
		CHANNELS 3 Zrotation Yrotation Xrotation
		JOINT RightLeg
		{
			OFFSET 0.000000 -38.200325 0.000000
			CHANNELS 3 Zrotation Yrotation Xrotation
			JOINT RightFoot
			{
				OFFSET -0.000000 -39.900856 -0.000000
				CHANNELS 3 Zrotation Yrotation Xrotation
				JOINT RightToeBase
				{
					OFFSET 0.000000 0.000000 15.261641
					CHANNELS 3 Zrotation Yrotation Xrotation
					JOINT RightToeBaseEnd
					{
						OFFSET 0.000000 0.000000 7.370709
						CHANNELS 3 Zrotation Yrotation Xrotation
						End Site
						{
							OFFSET 0.000000 0.000000 0.000000
						}
					}
				}
				JOINT RightLegEnd
				{
					OFFSET 0.000000 0.000000 0.000000
					CHANNELS 3 Zrotation Yrotation Xrotation
					End Site
					{
						OFFSET 0.000000 0.000000 0.000000
					}
				}
			}
			JOINT RightUpLegEnd
			{
				OFFSET 0.000000 0.000000 0.000000
				CHANNELS 3 Zrotation Yrotation Xrotation
				End Site
				{
					OFFSET 0.000000 0.000000 0.000000
				}
			}
		}
	}
	JOINT LeftUpLeg
	{
		OFFSET 11.315661 -0.000000 0.000000
		CHANNELS 3 Zrotation Yrotation Xrotation
		JOINT LeftLeg
		{
			OFFSET -0.000000 -38.200325 -0.000000
			CHANNELS 3 Zrotation Yrotation Xrotation
			JOINT LeftFoot
			{
				OFFSET 0.000000 -39.900856 -0.000000
				CHANNELS 3 Zrotation Yrotation Xrotation
				JOINT LeftToeBase
				{
					OFFSET -0.000000 -0.000000 15.261641
					CHANNELS 3 Zrotation Yrotation Xrotation
					JOINT LeftToeBaseEnd
					{
						OFFSET 0.000000 -0.000000 7.539996
						CHANNELS 3 Zrotation Yrotation Xrotation
						End Site
						{
							OFFSET 0.000000 0.000000 0.000000
						}
					}
				}
				JOINT LeftLegEnd
				{
					OFFSET 0.000000 0.000000 0.000000
					CHANNELS 3 Zrotation Yrotation Xrotation
					End Site
					{
						OFFSET 0.000000 0.000000 0.000000
					}
				}
			}
			JOINT LeftUpLegEnd
			{
				OFFSET 0.000000 0.000000 0.000000
				CHANNELS 3 Zrotation Yrotation Xrotation
				End Site
				{
					OFFSET 0.000000 0.000000 0.000000
				}
			}
		}
	}
}
MOTION
Frames: 5
Frame Time: 0.016667
0.053599 88.859886 3.107447 0.490481 0.055862 -6.497332 0.023754 -0.000539 5.886370 -1.012250 0.067046 0.861970 0.478071 -2.416792 3.829567 0.155030 -0.780500 1.929224 2.330515 0.848112 5.016849 0.371683 2.117863 -3.221864 -0.714533 -0.852149 -18.222401 0.000000 0.000000 0.000000 92.418694 -0.394880 9.707912 65.456573 -33.431271 5.091406 -0.130291 12.440493 22.353239 6.882370 13.743960 -6.458578 19.861429 30.097643 62.040974 -8.462701 -12.164348 -20.450144 -6.325801 -8.139122 -14.332924 0.000000 0.000000 0.000000 12.621688 -10.712396 0.231899 8.905269 0.376633 1.323778 8.902945 -0.111869 1.243825 0.000000 0.000000 0.000000 11.194713 -5.446730 -1.239449 7.889823 0.455857 0.481039 7.889222 -0.037052 0.412494 0.000000 0.000000 0.000000 10.912717 2.564455 -1.535874 7.825817 -0.947299 -0.611652 7.824722 0.070320 -0.477096 0.000000 0.000000 0.000000 9.631022 11.185607 -2.805182 7.161172 -1.900893 -1.652070 7.157181 0.085565 -1.400512 0.000000 0.000000 0.000000 0.000000 0.000000 0.000000 0.000000 0.000000 0.000000 -90.370071 0.051974 5.208683 -71.842018 19.306828 -7.574249 -0.664994 -8.642401 40.885647 -0.139946 -25.486511 -15.477552 -20.250540 -29.996990 61.691063 8.807010 12.918287 -21.553112 6.618044 8.635277 -15.110494 0.000000 0.000000 0.000000 -16.168392 -5.636370 -1.918335 -11.569428 0.324957 -1.715407 -11.569072 -0.164917 -1.615128 0.000000 0.000000 0.000000 -15.643335 -0.758781 -1.694552 -11.169063 0.440303 -0.678956 -11.168735 -0.058746 -0.582722 0.000000 0.000000 0.000000 -18.003109 7.607869 -1.025503 -12.703986 -0.874371 0.992852 -12.702737 0.099213 0.772902 0.000000 0.000000 0.000000 -18.852142 16.262062 -0.245862 -13.102126 -1.657223 2.980032 -13.096694 0.281077 2.526406 0.000000 0.000000 0.000000 0.000000 0.000000 0.000000 0.000000 0.000000 0.000000 -1.045058 -10.518975 11.869204 -0.078405 -0.635030 3.758801 -2.197730 -7.901679 18.681496 -0.890004 0.828132 -18.870453 0.000000 0.000000 0.000000 0.000000 0.000000 0.000000 0.000000 0.000000 0.000000 -1.784023 -6.543907 7.474547 0.053202 0.398207 7.545935 3.843466 -1.785134 17.966772 0.194973 -0.390531 -20.817129 0.000000 0.000000 0.000000 0.000000 0.000000 0.000000 0.000000 0.000000 0.000000 
0.104765 88.909805 2.904984 -0.311827 -0.321384 -7.307822 1.318550 -0.187750 6.665526 -0.962536 0.121855 2.643258 0.775746 -1.616703 1.608336 -0.875484 -0.149427 3.085144 1.389792 2.277188 3.066160 0.327514 2.981741 -3.813766 -1.051988 -0.557668 -18.479187 0.000000 0.000000 0.000000 92.928612 -0.405487 9.592719 65.038879 -32.081970 3.936326 -0.086821 13.150336 23.379513 6.926205 13.090402 -6.851468 19.865088 30.089062 62.078583 -8.443374 -12.062515 -20.416168 -6.295476 -8.085767 -14.272262 0.000000 0.000000 0.000000 11.870302 -10.717170 -0.178201 8.821191 0.337898 1.307702 8.611551 -0.103689 1.242289 0.000000 0.000000 0.000000 10.737151 -5.325975 -0.993930 7.490811 0.425653 0.509090 7.856735 -0.051086 0.435726 0.000000 0.000000 0.000000 10.210661 2.593145 -0.800232 7.300000 -0.892583 -0.840644 7.349865 0.064588 -0.616692 0.000000 0.000000 0.000000 9.500835 11.055758 -1.831189 7.018703 -1.656658 -2.390111 6.613950 0.272969 -2.025259 0.000000 0.000000 0.000000 0.000000 0.000000 0.000000 0.000000 0.000000 0.000000 -89.900620 0.109835 6.062417 -71.759743 19.545387 -6.563261 -1.208235 -9.216017 40.337910 1.657790 -23.384764 -16.176830 -20.258341 -29.957287 61.591393 8.918892 12.967451 -21.726791 6.672945 8.679952 -15.186506 0.000000 0.000000 0.000000 -17.303242 -5.475370 -0.104061 -10.968455 0.300898 -1.360500 -11.092702 -0.164356 -1.254068 0.000000 0.000000 0.000000 -16.635738 -0.488633 -0.897727 -10.861300 0.412217 -0.576808 -10.770913 -0.064438 -0.460770 0.000000 0.000000 0.000000 -18.864927 7.554680 -0.714053 -12.382032 -0.871984 0.834521 -12.367425 0.081068 0.646031 0.000000 0.000000 0.000000 -20.198502 15.943670 -1.131910 -12.959459 -1.557197 2.611333 -12.821980 0.337901 2.222915 0.000000 0.000000 0.000000 0.000000 0.000000 0.000000 0.000000 0.000000 0.000000 0.206751 -9.156403 11.019927 -0.047641 -0.641904 6.164991 -2.910167 -9.119136 17.732704 -0.785320 0.760952 -19.052372 0.000000 0.000000 0.000000 0.000000 0.000000 0.000000 0.000000 0.000000 0.000000 -1.488388 -6.433223 7.171738 0.056707 0.359422 8.480955 3.723408 -0.680437 17.027199 0.385198 -0.473498 -20.529415 0.000000 0.000000 0.000000 0.000000 0.000000 0.000000 0.000000 0.000000 0.000000 
0.098810 88.896088 2.897540 -0.347418 -0.407415 -7.402003 1.319055 -0.180847 6.721197 -0.908922 0.109026 2.597085 0.764349 -1.575188 1.749290 -0.847016 -0.114698 3.128115 1.336262 2.205730 2.998654 0.318539 2.920843 -3.812720 -1.067598 -0.583573 -18.455166 0.000000 0.000000 0.000000 92.817543 -0.400589 9.526471 65.021255 -32.183495 4.032636 -0.035693 13.282127 23.483892 6.829935 12.737378 -6.768267 19.852577 30.089256 62.080544 -8.446619 -12.051382 -20.400204 -6.295425 -8.077192 -14.266326 0.000000 0.000000 0.000000 11.851506 -10.709969 -0.170857 8.825607 0.348821 1.267055 8.627435 -0.091765 1.202440 0.000000 0.000000 0.000000 10.758419 -5.314353 -0.955006 7.509029 0.429577 0.493418 7.873267 -0.047156 0.422556 0.000000 0.000000 0.000000 10.242954 2.585801 -0.726497 7.339514 -0.898864 -0.820095 7.405069 0.058037 -0.597945 0.000000 0.000000 0.000000 9.473146 11.050387 -1.702273 7.003942 -1.674279 -2.342665 6.626604 0.257283 -1.980930 0.000000 0.000000 0.000000 0.000000 0.000000 0.000000 0.000000 0.000000 0.000000 -89.846199 0.106093 6.100636 -71.958366 19.591625 -6.456810 -1.196548 -9.291361 40.324921 1.653415 -23.263128 -16.104717 -20.238405 -29.965176 61.614437 8.892915 12.916870 -21.664286 6.652848 8.646311 -15.133559 0.000000 0.000000 0.000000 -17.162319 -5.531642 -0.124516 -10.979862 0.309304 -1.317230 -11.089697 -0.154210 -1.217801 0.000000 0.000000 0.000000 -16.454834 -0.526747 -0.917803 -10.888396 0.416072 -0.563563 -10.788328 -0.061659 -0.449247 0.000000 0.000000 0.000000 -18.774134 7.536273 -0.752059 -12.418607 -0.876887 0.821731 -12.396791 0.077298 0.633252 0.000000 0.000000 0.000000 -20.209621 15.921356 -1.194830 -12.960540 -1.573061 2.554576 -12.808097 0.325801 2.189998 0.000000 0.000000 0.000000 0.000000 0.000000 0.000000 0.000000 0.000000 0.000000 0.224508 -9.088339 11.138443 -0.047798 -0.645229 6.103385 -2.859251 -9.163031 17.770748 -0.786117 0.764865 -19.053576 0.000000 0.000000 0.000000 0.000000 0.000000 0.000000 0.000000 0.000000 0.000000 -1.448732 -6.400447 7.178171 0.054753 0.350122 8.571518 3.710013 -0.693139 17.028658 0.370345 -0.481919 -20.555447 0.000000 0.000000 0.000000 0.000000 0.000000 0.000000 0.000000 0.000000 0.000000 
0.101584 88.883675 2.911145 -0.372455 -0.475653 -7.521507 1.330011 -0.174693 6.726633 -0.903030 0.109274 2.563031 0.764488 -1.541948 1.883258 -0.836075 -0.081504 3.189144 1.323413 2.149965 2.947165 0.337893 2.890441 -3.813850 -1.061288 -0.588193 -18.466898 0.000000 0.000000 0.000000 92.714256 -0.413361 9.489020 65.129715 -31.931444 3.909618 -0.018882 13.447321 23.742939 7.012719 12.403561 -6.584786 19.871599 30.085697 62.057873 -8.464408 -12.100883 -20.466717 -6.308940 -8.105563 -14.312879 0.000000 0.000000 0.000000 12.035089 -10.746620 -0.161811 8.955929 0.360765 1.223026 8.768213 -0.079964 1.160720 0.000000 0.000000 0.000000 10.944427 -5.339406 -0.918011 7.632667 0.435208 0.477226 8.004447 -0.042310 0.407632 0.000000 0.000000 0.000000 10.389925 2.568322 -0.631125 7.459554 -0.907293 -0.801073 7.542818 0.051906 -0.580463 0.000000 0.000000 0.000000 9.522754 11.060826 -1.545132 7.064494 -1.692776 -2.302719 6.711266 0.243963 -1.949523 0.000000 0.000000 0.000000 0.000000 0.000000 0.000000 0.000000 0.000000 0.000000 -89.803711 0.106510 6.127475 -72.142159 19.547176 -6.402716 -1.170183 -9.385158 40.385414 1.542411 -23.136835 -15.919734 -20.234304 -29.967379 61.617393 8.884145 12.891754 -21.656183 6.646954 8.638825 -15.115443 0.000000 0.000000 0.000000 -17.153214 -5.555880 -0.050642 -10.974103 0.318987 -1.276702 -11.063634 -0.143890 -1.182112 0.000000 0.000000 0.000000 -16.391083 -0.541417 -0.860973 -10.897381 0.420442 -0.548270 -10.795347 -0.058240 -0.435544 0.000000 0.000000 0.000000 -18.797270 7.528370 -0.679786 -12.439898 -0.883132 0.807562 -12.424763 0.072782 0.619697 0.000000 0.000000 0.000000 -20.320539 15.901887 -1.163535 -12.982162 -1.589202 2.510711 -12.809291 0.316423 2.163196 0.000000 0.000000 0.000000 0.000000 0.000000 0.000000 0.000000 0.000000 0.000000 0.214047 -9.040069 11.271632 -0.047666 -0.644662 6.105806 -2.794458 -9.186188 17.775381 -0.788113 0.766676 -19.045313 0.000000 0.000000 0.000000 0.000000 0.000000 0.000000 0.000000 0.000000 0.000000 -1.425120 -6.365729 7.207530 0.053594 0.346405 8.688619 3.707682 -0.681084 17.005758 0.362567 -0.487535 -20.551977 0.000000 0.000000 0.000000 0.000000 0.000000 0.000000 0.000000 0.000000 0.000000 
0.108023 88.876282 2.931191 -0.388352 -0.527205 -7.653006 1.341511 -0.166106 6.720669 -0.900129 0.114015 2.540245 0.748885 -1.478444 2.003723 -0.840881 -0.048042 3.257169 1.280486 2.123108 2.967283 0.365610 2.852604 -3.788527 -1.031708 -0.585695 -18.533453 0.000000 0.000000 0.000000 92.645866 -0.418520 9.488485 65.338577 -31.588097 3.682332 -0.012016 13.679834 24.042601 7.145715 12.131173 -6.357910 19.895744 30.077843 62.025368 -8.492398 -12.164495 -20.553425 -6.330066 -8.142062 -14.367553 0.000000 0.000000 0.000000 12.318076 -10.796109 -0.118380 9.104452 0.376753 1.168336 8.925329 -0.063912 1.111638 0.000000 0.000000 0.000000 11.236489 -5.385357 -0.846657 7.776423 0.443065 0.456356 8.161131 -0.035836 0.388946 0.000000 0.000000 0.000000 10.655795 2.523815 -0.499144 7.606225 -0.918992 -0.771718 7.704890 0.043063 -0.556202 0.000000 0.000000 0.000000 9.668849 11.043658 -1.364010 7.166678 -1.723293 -2.227860 6.834572 0.220534 -1.890825 0.000000 0.000000 0.000000 0.000000 0.000000 0.000000 0.000000 0.000000 0.000000 -89.760063 0.103559 6.131592 -72.194519 19.537466 -6.337649 -1.140676 -9.444970 40.583382 1.332785 -22.925581 -15.810753 -20.220308 -29.969086 61.620838 8.879282 12.852865 -21.633266 6.639396 8.620154 -15.087558 0.000000 0.000000 0.000000 -17.202118 -5.555974 0.083153 -10.945770 0.337649 -1.210340 -11.018711 -0.124707 -1.123794 0.000000 0.000000 0.000000 -16.386707 -0.542479 -0.743603 -10.876456 0.428840 -0.521728 -10.778246 -0.051435 -0.413030 0.000000 0.000000 0.000000 -18.850019 7.519320 -0.535099 -12.435529 -0.895358 0.776775 -12.420609 0.063608 0.594734 0.000000 0.000000 0.000000 -20.444563 15.876526 -1.068091 -12.981160 -1.623436 2.419129 -12.785148 0.290986 2.096996 0.000000 0.000000 0.000000 0.000000 0.000000 0.000000 0.000000 0.000000 0.000000 0.188807 -8.990669 11.419569 -0.047427 -0.643602 6.107446 -2.740654 -9.164433 17.780769 -0.787784 0.766568 -19.040594 0.000000 0.000000 0.000000 0.000000 0.000000 0.000000 0.000000 0.000000 0.000000 -1.407919 -6.351018 7.264672 0.053033 0.344203 8.798603 3.695105 -0.656846 16.990866 0.359385 -0.490505 -20.553646 0.000000 0.000000 0.000000 0.000000 0.000000 0.000000 0.000000 0.000000 0.000000 
